<?xml version="1.0" encoding="UTF-8" standalone="no"?>
<!-- Generator: Adobe Illustrator 16.0.0, SVG Export Plug-In . SVG Version: 6.00 Build 0)  -->

<svg
   xmlns:dc="http://purl.org/dc/elements/1.1/"
   xmlns:cc="http://creativecommons.org/ns#"
   xmlns:rdf="http://www.w3.org/1999/02/22-rdf-syntax-ns#"
   xmlns:svg="http://www.w3.org/2000/svg"
   xmlns="http://www.w3.org/2000/svg"
   xmlns:sodipodi="http://sodipodi.sourceforge.net/DTD/sodipodi-0.dtd"
   xmlns:inkscape="http://www.inkscape.org/namespaces/inkscape"
   version="1.1"
   id="Layer_1"
   x="0px"
   y="0px"
   width="74px"
   height="56px"
   viewBox="0 0 74 56"
   enable-background="new 0 0 74 56"
   xml:space="preserve"
   sodipodi:docname="audit-number-analysis.svg"
   inkscape:version="0.92.3 (2405546, 2018-03-11)"
   inkscape:export-filename="C:\Users\derksk\OneDrive - Nyenrode Business Universiteit\Desktop\audit-fullaudit.png"
   inkscape:export-xdpi="377"
   inkscape:export-ydpi="377"><metadata
   id="metadata2713"><rdf:RDF><cc:Work
       rdf:about=""><dc:format>image/svg+xml</dc:format><dc:type
         rdf:resource="http://purl.org/dc/dcmitype/StillImage" /><dc:title /></cc:Work></rdf:RDF></metadata><defs
   id="defs2711" /><sodipodi:namedview
   pagecolor="#ffffff"
   bordercolor="#666666"
   borderopacity="1"
   objecttolerance="10"
   gridtolerance="10"
   guidetolerance="10"
   inkscape:pageopacity="0"
   inkscape:pageshadow="2"
   inkscape:window-width="1920"
   inkscape:window-height="1001"
   id="namedview2709"
   showgrid="false"
   inkscape:zoom="9.1597144"
   inkscape:cx="36.785636"
   inkscape:cy="33.071326"
   inkscape:window-x="1791"
   inkscape:window-y="-9"
   inkscape:window-maximized="1"
   inkscape:current-layer="Layer_1"
   inkscape:lockguides="true" />









<rect
   style="fill:#006df0;fill-opacity:1;stroke:#380000;stroke-width:0;stroke-linecap:round;stroke-linejoin:round;stroke-miterlimit:10;stroke-dasharray:none;stroke-opacity:1;paint-order:normal"
   id="rect864-5"
   width="15.502667"
   height="9.6072874"
   x="55.306881"
   y="42.429993" /><rect
   style="fill:#006df0;fill-opacity:1;stroke:#380000;stroke-width:0;stroke-linecap:round;stroke-linejoin:round;stroke-miterlimit:10;stroke-dasharray:none;stroke-opacity:1;paint-order:normal"
   id="rect864-4"
   width="15.502667"
   height="15.284321"
   x="37.804214"
   y="36.75296" /><rect
   style="fill:#919191;stroke-width:1.2470181"
   x="53.491776"
   y="-31.493586"
   width="23.73238"
   height="3.145179"
   id="rect50-8"
   transform="matrix(0.56558422,0.82469054,-0.60717527,0.79456793,0,0)" /><rect
   style="fill:#919191;stroke-width:1.2470181"
   x="-14.318511"
   y="43.556232"
   width="23.73238"
   height="3.145179"
   id="rect50-3"
   transform="matrix(0.7398201,-0.67280474,0.86997299,0.49309938,0,0)" /><rect
   style="fill:#006df0;fill-opacity:1;stroke:#380000;stroke-width:0;stroke-linecap:round;stroke-linejoin:round;stroke-miterlimit:10;stroke-dasharray:none;stroke-opacity:1;paint-order:normal"
   id="rect864-0"
   width="15.502667"
   height="20.961353"
   x="20.301544"
   y="31.075928" /><rect
   style="fill:#006df0;fill-opacity:1;stroke:#380000;stroke-width:0;stroke-linecap:round;stroke-linejoin:round;stroke-miterlimit:10;stroke-dasharray:none;stroke-opacity:1;paint-order:normal"
   id="rect864"
   width="15.502667"
   height="46.289654"
   x="2.798877"
   y="5.7476268" /><rect
   style="fill:#919191;stroke-width:1.22802126"
   x="14.822483"
   y="-0.78177279"
   width="23.206516"
   height="3.1191981"
   id="rect50"
   transform="matrix(0.66900732,0.74325581,-0.70813937,0.70607269,0,0)" /><g
   id="g162-6-5"
   transform="matrix(0.13462481,0.05151999,-0.04544169,0.13021928,-30.034966,-37.982793)"
   style="fill:#fb8c00;fill-opacity:1"><g
     id="g160-5-71"
     style="fill:#fb8c00;fill-opacity:1"><path
       inkscape:connector-curvature="0"
       d="m 384,200 c -22.091,0 -40,17.909 -40,40 0,22.091 17.909,40 40,40 22.091,0 40,-17.909 40,-40 0,-22.091 -17.909,-40 -40,-40 z m 0,64 c -13.255,0 -24,-10.745 -24,-24 0,-13.255 10.745,-24 24,-24 13.255,0 24,10.745 24,24 0,13.255 -10.745,24 -24,24 z"
       id="path158-7-3"
       style="fill:#fb8c00;fill-opacity:1" /></g></g><ellipse
   style="fill:#fb8c00;fill-opacity:1;stroke:#380000;stroke-width:0;stroke-linecap:round;stroke-linejoin:bevel;stroke-miterlimit:10;stroke-dasharray:none;stroke-opacity:1;paint-order:normal"
   id="path1066-9-1-9"
   cx="10.506289"
   cy="12.883699"
   rx="4.6944695"
   ry="4.0394273" /><path
   inkscape:connector-curvature="0"
   style="fill:#c65000;stroke-width:0.58315575"
   d="m 14.880263,10.619821 c 0.122144,0.416081 0.191855,0.848714 0.191855,1.301895 0,2.646596 -2.242683,4.793781 -5.004331,4.793781 -1.6260056,0 -3.0649226,-0.74712 -3.9789166,-1.894339 0.592845,2.014768 2.519742,3.492456 4.8130716,3.492456 2.763434,0 5.004331,-2.147755 5.004331,-4.793781 0,-1.090715 -0.384307,-2.094675 -1.02601,-2.900012 z"
   id="path130-46" /><g
   id="g162-6-5-9"
   transform="matrix(0.13462481,0.05151999,-0.04544169,0.13021928,-12.623104,-19.491214)"
   style="fill:#fb8c00;fill-opacity:1"><g
     id="g160-5-71-0"
     style="fill:#fb8c00;fill-opacity:1"><path
       inkscape:connector-curvature="0"
       d="m 384,200 c -22.091,0 -40,17.909 -40,40 0,22.091 17.909,40 40,40 22.091,0 40,-17.909 40,-40 0,-22.091 -17.909,-40 -40,-40 z m 0,64 c -13.255,0 -24,-10.745 -24,-24 0,-13.255 10.745,-24 24,-24 13.255,0 24,10.745 24,24 0,13.255 -10.745,24 -24,24 z"
       id="path158-7-3-0"
       style="fill:#fb8c00;fill-opacity:1" /></g></g><ellipse
   style="fill:#fb8c00;fill-opacity:1;stroke:#380000;stroke-width:0;stroke-linecap:round;stroke-linejoin:bevel;stroke-miterlimit:10;stroke-dasharray:none;stroke-opacity:1;paint-order:normal"
   id="path1066-9-1-9-4"
   cx="27.91815"
   cy="31.375278"
   rx="4.6944695"
   ry="4.0394273" /><path
   inkscape:connector-curvature="0"
   style="fill:#c65000;stroke-width:0.58315575"
   d="m 32.292125,29.1114 c 0.122144,0.416081 0.191855,0.848714 0.191855,1.301895 0,2.646596 -2.242683,4.793781 -5.004331,4.793781 -1.626006,0 -3.064923,-0.74712 -3.978917,-1.894339 0.592845,2.014768 2.519742,3.492456 4.813072,3.492456 2.763434,0 5.004331,-2.147755 5.004331,-4.793781 0,-1.090715 -0.384307,-2.094675 -1.02601,-2.900012 z"
   id="path130-46-3" /><g
   id="g162-6-5-99"
   transform="matrix(0.13462481,0.05151999,-0.04544169,0.13021928,5.4997318,-34.120491)"
   style="fill:#fb8c00;fill-opacity:1"><g
     id="g160-5-71-4"
     style="fill:#fb8c00;fill-opacity:1"><path
       inkscape:connector-curvature="0"
       d="m 384,200 c -22.091,0 -40,17.909 -40,40 0,22.091 17.909,40 40,40 22.091,0 40,-17.909 40,-40 0,-22.091 -17.909,-40 -40,-40 z m 0,64 c -13.255,0 -24,-10.745 -24,-24 0,-13.255 10.745,-24 24,-24 13.255,0 24,10.745 24,24 0,13.255 -10.745,24 -24,24 z"
       id="path158-7-3-1"
       style="fill:#fb8c00;fill-opacity:1" /></g></g><ellipse
   style="fill:#fb8c00;fill-opacity:1;stroke:#380000;stroke-width:0;stroke-linecap:round;stroke-linejoin:bevel;stroke-miterlimit:10;stroke-dasharray:none;stroke-opacity:1;paint-order:normal"
   id="path1066-9-1-9-2"
   cx="46.040985"
   cy="16.746"
   rx="4.6944695"
   ry="4.0394273" /><path
   inkscape:connector-curvature="0"
   style="fill:#c65000;stroke-width:0.58315575"
   d="m 50.414961,14.482123 c 0.122144,0.416081 0.191855,0.848714 0.191855,1.301895 0,2.646596 -2.242683,4.793781 -5.004331,4.793781 -1.626006,0 -3.064923,-0.74712 -3.978917,-1.894339 0.592845,2.014768 2.519742,3.492456 4.813072,3.492456 2.763434,0 5.004331,-2.147755 5.004331,-4.793781 0,-1.090715 -0.384307,-2.094675 -1.02601,-2.900012 z"
   id="path130-46-9" /><g
   id="g162-6-5-6"
   transform="matrix(0.13462481,0.05151999,-0.04544169,0.13021928,22.203309,-8.5738437)"
   style="fill:#fb8c00;fill-opacity:1"><g
     id="g160-5-71-7"
     style="fill:#fb8c00;fill-opacity:1"><path
       inkscape:connector-curvature="0"
       d="m 384,200 c -22.091,0 -40,17.909 -40,40 0,22.091 17.909,40 40,40 22.091,0 40,-17.909 40,-40 0,-22.091 -17.909,-40 -40,-40 z m 0,64 c -13.255,0 -24,-10.745 -24,-24 0,-13.255 10.745,-24 24,-24 13.255,0 24,10.745 24,24 0,13.255 -10.745,24 -24,24 z"
       id="path158-7-3-7"
       style="fill:#fb8c00;fill-opacity:1" /></g></g><ellipse
   style="fill:#fb8c00;fill-opacity:1;stroke:#380000;stroke-width:0;stroke-linecap:round;stroke-linejoin:bevel;stroke-miterlimit:10;stroke-dasharray:none;stroke-opacity:1;paint-order:normal"
   id="path1066-9-1-9-7"
   cx="62.744564"
   cy="42.292648"
   rx="4.6944695"
   ry="4.0394273" /><path
   inkscape:connector-curvature="0"
   style="fill:#c65000;stroke-width:0.58315575"
   d="m 67.118538,40.02877 c 0.122144,0.416081 0.191855,0.848714 0.191855,1.301895 0,2.646596 -2.242683,4.793782 -5.004331,4.793782 -1.626006,0 -3.064923,-0.747121 -3.978917,-1.89434 0.592845,2.014769 2.519742,3.492456 4.813072,3.492456 2.763434,0 5.004331,-2.147755 5.004331,-4.793781 0,-1.090715 -0.384307,-2.094675 -1.02601,-2.900012 z"
   id="path130-46-32" /><rect
   style="fill:#0044d1;fill-opacity:1;stroke:#380000;stroke-width:0;stroke-linecap:round;stroke-linejoin:round;stroke-miterlimit:10;stroke-dasharray:none;stroke-opacity:1;paint-order:normal"
   id="rect1099"
   width="0.47633499"
   height="45.776253"
   x="2.7988768"
   y="5.7476268" /><rect
   style="fill:#0044d1;fill-opacity:1;stroke:#380000;stroke-width:0;stroke-linecap:round;stroke-linejoin:round;stroke-miterlimit:10;stroke-dasharray:none;stroke-opacity:1;paint-order:normal"
   id="rect1099-9"
   width="0.47633499"
   height="20.961353"
   x="20.301544"
   y="31.075928" /><rect
   style="fill:#0044d1;fill-opacity:1;stroke:#380000;stroke-width:0;stroke-linecap:round;stroke-linejoin:round;stroke-miterlimit:10;stroke-dasharray:none;stroke-opacity:1;paint-order:normal"
   id="rect1099-9-3"
   width="0.47633499"
   height="15.284323"
   x="37.327881"
   y="36.75296" /><rect
   style="fill:#0044d1;fill-opacity:1;stroke:#380000;stroke-width:0;stroke-linecap:round;stroke-linejoin:round;stroke-miterlimit:10;stroke-dasharray:none;stroke-opacity:1;paint-order:normal"
   id="rect1099-9-3-1"
   width="0.47633499"
   height="9.6072865"
   x="55.306881"
   y="42.429993" /><rect
   style="fill:#0044d1;fill-opacity:1;stroke:#380000;stroke-width:0;stroke-linecap:round;stroke-linejoin:round;stroke-miterlimit:10;stroke-dasharray:none;stroke-opacity:1;paint-order:normal"
   id="rect1099-9-3-0"
   width="0.47633511"
   height="15.50264"
   x="51.485752"
   y="-18.520042"
   transform="matrix(-0.00420254,0.99999117,-0.99999166,-0.00408502,0,0)" /><rect
   style="fill:#0044d1;fill-opacity:1;stroke:#380000;stroke-width:0;stroke-linecap:round;stroke-linejoin:round;stroke-miterlimit:10;stroke-dasharray:none;stroke-opacity:1;paint-order:normal"
   id="rect1099-9-3-0-3"
   width="0.47633511"
   height="15.50264"
   x="51.414253"
   y="-36.022583"
   transform="matrix(-0.00420254,0.99999117,-0.99999166,-0.00408502,0,0)" /><rect
   style="fill:#0044d1;fill-opacity:1;stroke:#380000;stroke-width:0;stroke-linecap:round;stroke-linejoin:round;stroke-miterlimit:10;stroke-dasharray:none;stroke-opacity:1;paint-order:normal"
   id="rect1099-9-3-0-4"
   width="0.47633511"
   height="15.50264"
   x="51.342754"
   y="-53.525101"
   transform="matrix(-0.00420254,0.99999117,-0.99999166,-0.00408502,0,0)" /><rect
   style="fill:#0044d1;fill-opacity:1;stroke:#380000;stroke-width:0;stroke-linecap:round;stroke-linejoin:round;stroke-miterlimit:10;stroke-dasharray:none;stroke-opacity:1;paint-order:normal"
   id="rect1099-9-3-0-5"
   width="0.47633511"
   height="15.50264"
   x="51.271255"
   y="-71.027611"
   transform="matrix(-0.00420254,0.99999117,-0.99999166,-0.00408502,0,0)" /></svg>