<?xml version="1.0" encoding="UTF-8" standalone="no"?>
<!-- Created with Inkscape (http://www.inkscape.org/) -->

<svg
   width="252.59596mm"
   height="172.37436mm"
   viewBox="0 0 252.59596 172.37436"
   version="1.1"
   id="svg8"
   inkscape:version="1.2.1 (9c6d41e, 2022-07-14)"
   sodipodi:docname="audit-selection.svg"
   xmlns:inkscape="http://www.inkscape.org/namespaces/inkscape"
   xmlns:sodipodi="http://sodipodi.sourceforge.net/DTD/sodipodi-0.dtd"
   xmlns="http://www.w3.org/2000/svg"
   xmlns:svg="http://www.w3.org/2000/svg"
   xmlns:rdf="http://www.w3.org/1999/02/22-rdf-syntax-ns#"
   xmlns:cc="http://creativecommons.org/ns#"
   xmlns:dc="http://purl.org/dc/elements/1.1/">
  <defs
     id="defs2" />
  <sodipodi:namedview
     id="base"
     pagecolor="#ffffff"
     bordercolor="#666666"
     borderopacity="1.0"
     inkscape:pageopacity="0.0"
     inkscape:pageshadow="2"
     inkscape:zoom="1.0182482"
     inkscape:cx="402.65231"
     inkscape:cy="324.57704"
     inkscape:document-units="mm"
     inkscape:current-layer="layer1"
     showgrid="false"
     inkscape:window-width="1512"
     inkscape:window-height="833"
     inkscape:window-x="0"
     inkscape:window-y="38"
     inkscape:window-maximized="1"
     inkscape:showpageshadow="2"
     inkscape:pagecheckerboard="0"
     inkscape:deskcolor="#d1d1d1" />
  <metadata
     id="metadata5">
    <rdf:RDF>
      <cc:Work
         rdf:about="">
        <dc:format>image/svg+xml</dc:format>
        <dc:type
           rdf:resource="http://purl.org/dc/dcmitype/StillImage" />
        <dc:title />
      </cc:Work>
    </rdf:RDF>
  </metadata>
  <g
     inkscape:label="Layer 1"
     inkscape:groupmode="layer"
     id="layer1"
     transform="translate(-11.224747,6.5436446)">
    <rect
       style="fill:#006df0;fill-opacity:1;stroke:#f9883c;stroke-width:0;stroke-linecap:butt;stroke-linejoin:round;stroke-miterlimit:10;stroke-dasharray:none;stroke-opacity:1;paint-order:normal"
       id="rect4518-0"
       width="41.691917"
       height="41.691917"
       x="20.124372"
       y="111.55114"
       ry="20.845959" />
    <rect
       style="fill:#006df0;fill-opacity:1;stroke:#f9883c;stroke-width:0;stroke-linecap:butt;stroke-linejoin:round;stroke-miterlimit:10;stroke-dasharray:none;stroke-opacity:1;paint-order:normal"
       id="rect4518-0-9"
       width="124.27399"
       height="41.691921"
       x="82.982948"
       y="111.55114" />
    <rect
       style="fill:#fb8c00;fill-opacity:1;stroke:#f9883c;stroke-width:0;stroke-linecap:butt;stroke-linejoin:round;stroke-miterlimit:10;stroke-dasharray:none;stroke-opacity:1;paint-order:normal"
       id="rect4518-0-0"
       width="41.691921"
       height="41.691921"
       x="20.124371"
       y="59.27589"
       ry="20.845961" />
    <rect
       style="fill:#006df0;fill-opacity:1;stroke:#f9883c;stroke-width:0;stroke-linecap:butt;stroke-linejoin:round;stroke-miterlimit:10;stroke-dasharray:none;stroke-opacity:1;paint-order:normal"
       id="rect4518-0-98"
       width="41.691921"
       height="41.691921"
       x="20.124371"
       y="7.0006347"
       ry="20.845961" />
    <rect
       style="fill:#fb8c00;fill-opacity:1;stroke:#f9883c;stroke-width:0;stroke-linecap:butt;stroke-linejoin:round;stroke-miterlimit:10;stroke-dasharray:none;stroke-opacity:1;paint-order:normal"
       id="rect4518-0-9-6"
       width="124.27399"
       height="41.691921"
       x="82.982948"
       y="59.275883" />
    <rect
       style="fill:#006df0;fill-opacity:1;stroke:#f9883c;stroke-width:0;stroke-linecap:butt;stroke-linejoin:round;stroke-miterlimit:10;stroke-dasharray:none;stroke-opacity:1;paint-order:normal"
       id="rect4518-0-9-4"
       width="124.27399"
       height="41.691921"
       x="82.982948"
       y="7.0006289" />
    <path
       inkscape:connector-curvature="0"
       style="fill:#c65000;stroke-width:2.20047"
       d="m 55.971187,70.069192 c 0.463526,1.561273 0.727987,3.18465 0.727987,4.885134 0,9.930926 -8.51004,17.987875 -18.989345,17.987875 -6.170014,0 -11.630114,-2.80345 -15.098331,-7.1082 2.249601,7.560083 9.561361,13.104868 18.263595,13.104868 10.486088,0 18.989359,-8.059093 18.989359,-17.987875 0,-4.092727 -1.458297,-7.859919 -3.893265,-10.881802 z"
       id="path130-46" />
    <path
       inkscape:connector-curvature="0"
       style="fill:#0044cf;fill-opacity:1;stroke-width:2.20047"
       d="m 56.338836,122.62423 c 0.463527,1.56127 0.727987,3.18465 0.727987,4.88513 0,9.93093 -8.51004,17.98788 -18.989345,17.98788 -6.170014,0 -11.630114,-2.80346 -15.098331,-7.10821 2.249601,7.56009 9.561361,13.10488 18.263595,13.10488 10.486088,0 18.989359,-8.0591 18.989359,-17.98788 0,-4.09273 -1.458297,-7.85992 -3.893265,-10.8818 z"
       id="path130-46-0" />
    <path
       inkscape:connector-curvature="0"
       style="fill:#0044cf;stroke-width:2.20047;fill-opacity:1"
       d="m 56.024247,17.907249 c 0.463526,1.561273 0.727987,3.18465 0.727987,4.885134 0,9.930926 -8.51004,17.987875 -18.989345,17.987875 -6.170014,0 -11.630114,-2.80345 -15.098331,-7.1082 2.249601,7.560083 9.561361,13.104868 18.263595,13.104868 10.486088,0 18.989359,-8.059093 18.989359,-17.987875 0,-4.092727 -1.458297,-7.859919 -3.893265,-10.881802 z"
       id="path130-46-2" />
    <rect
       style="fill:#c65000;fill-opacity:1;stroke:#380000;stroke-width:0;stroke-linecap:round;stroke-linejoin:round;stroke-miterlimit:10;stroke-dasharray:none;stroke-opacity:1;paint-order:normal"
       id="rect1099"
       width="3.7838781"
       height="41.241184"
       x="203.41032"
       y="59.415588" />
    <rect
       style="fill:#c65000;fill-opacity:1;stroke:#380000;stroke-width:0;stroke-linecap:round;stroke-linejoin:round;stroke-miterlimit:10;stroke-dasharray:none;stroke-opacity:1;paint-order:normal"
       id="rect1099-9-3-0"
       width="0.42334118"
       height="123.1478"
       x="100.15442"
       y="-210.26398"
       transform="matrix(-0.03756276,0.99929427,-0.9999999,-4.5671924e-4,0,0)" />
    <rect
       style="fill:#0044cf;fill-opacity:1;stroke:#380000;stroke-width:0;stroke-linecap:round;stroke-linejoin:round;stroke-miterlimit:10;stroke-dasharray:none;stroke-opacity:1;paint-order:normal"
       id="rect1099-4"
       width="3.7838781"
       height="41.241184"
       x="203.41612"
       y="111.67792" />
    <rect
       style="fill:#0044cf;fill-opacity:1;stroke:#380000;stroke-width:0;stroke-linecap:round;stroke-linejoin:round;stroke-miterlimit:10;stroke-dasharray:none;stroke-opacity:1;paint-order:normal"
       id="rect1099-9-3-0-8"
       width="0.42334118"
       height="123.1478"
       x="152.64839"
       y="-211.92702"
       transform="matrix(-0.03756276,0.99929427,-0.9999999,-4.5671924e-4,0,0)" />
    <rect
       style="fill:#0044cf;fill-opacity:1;stroke:#380000;stroke-width:0;stroke-linecap:round;stroke-linejoin:round;stroke-miterlimit:10;stroke-dasharray:none;stroke-opacity:1;paint-order:normal"
       id="rect1099-3"
       width="3.7838781"
       height="41.241184"
       x="203.41612"
       y="7.1910644" />
    <rect
       style="fill:#0044cf;fill-opacity:1;stroke:#380000;stroke-width:0;stroke-linecap:round;stroke-linejoin:round;stroke-miterlimit:10;stroke-dasharray:none;stroke-opacity:1;paint-order:normal"
       id="rect1099-9-3-0-9"
       width="0.42334118"
       height="123.1478"
       x="48.132549"
       y="-208.31569"
       transform="matrix(-0.03756276,0.99929427,-0.9999999,-4.5671924e-4,0,0)" />
  </g>
</svg>
